<?xml version="1.0" encoding="utf-8"?>
<!-- Generator: Adobe Illustrator 18.0.0, SVG Export Plug-In . SVG Version: 6.00 Build 0)  -->
<!DOCTYPE svg PUBLIC "-//W3C//DTD SVG 1.1//EN" "http://www.w3.org/Graphics/SVG/1.1/DTD/svg11.dtd">
<svg version="1.1" id="Laag_1" xmlns="http://www.w3.org/2000/svg" xmlns:xlink="http://www.w3.org/1999/xlink" x="0px" y="0px"
	 viewBox="0 0 43 43" enable-background="new 0 0 43 43" xml:space="preserve">
<g>
	<path fill-rule="evenodd" clip-rule="evenodd" fill="#FFFFFF" d="M14.2,22.2c-0.4-0.4-0.4-0.8,0.1-1.1c1.1-0.6,2.2-1.1,3.3-1.6
		c3.1-1.5,6.1-3,9.2-4.5c0.2-0.1,0.4-0.2,0.6-0.3c0.5-0.1,1,0.3,0.9,0.8c0,0.2-0.2,0.5-0.3,0.7c-0.8,1-1.5,2.1-2,3.3
		c-0.7,2.1-0.4,4.1,0.7,6c0.3,0.5,0.7,1.1,1.1,1.6c0.2,0.3,0.4,0.6,0.3,1c0,0.6-0.5,0.9-1,0.6c-0.6-0.3-1.2-0.6-1.8-0.9
		c-3.6-1.8-7.1-3.7-10.7-5.5C14.5,22.4,14.4,22.3,14.2,22.2z"/>
	<g>
		<g>
			<path fill="none" stroke="#FFFFFF" stroke-width="2" stroke-miterlimit="10" d="M1,39.9c0,1.1,0.9,2,2,2h36.2c1.1,0,2-0.9,2-2
				V3.8c0-1.1-0.9-2-2-2H3c-1.1,0-2,0.9-2,2V39.9z"/>
		</g>
	</g>
</g>
</svg>
