<?xml version="1.0" encoding="utf-8"?>
<!-- Generator: Adobe Illustrator 18.0.0, SVG Export Plug-In . SVG Version: 6.00 Build 0)  -->
<!DOCTYPE svg PUBLIC "-//W3C//DTD SVG 1.1//EN" "http://www.w3.org/Graphics/SVG/1.1/DTD/svg11.dtd">
<svg version="1.1" id="Laag_1" xmlns="http://www.w3.org/2000/svg" xmlns:xlink="http://www.w3.org/1999/xlink" x="0px" y="0px"
	 viewBox="0 0 43 43" enable-background="new 0 0 43 43" xml:space="preserve">
<g>
	<path fill-rule="evenodd" clip-rule="evenodd" fill="#FFFFFF" d="M22,28.6c-0.4,0.4-0.8,0.4-1.1-0.1c-0.6-1.1-1.1-2.2-1.6-3.3
		c-1.5-3.1-3-6.1-4.5-9.2c-0.1-0.2-0.2-0.4-0.3-0.6c-0.1-0.5,0.3-1,0.8-0.9c0.2,0,0.5,0.2,0.7,0.3c1,0.8,2.1,1.5,3.3,2
		c2.1,0.7,4.1,0.4,6-0.7c0.5-0.3,1.1-0.7,1.6-1.1c0.3-0.2,0.6-0.4,1-0.3c0.6,0,0.9,0.5,0.6,1c-0.3,0.6-0.6,1.2-0.9,1.8
		c-1.8,3.6-3.7,7.1-5.5,10.7C22.2,28.3,22.1,28.5,22,28.6z"/>
	<g>
		<g>
			<path fill="none" stroke="#FFFFFF" stroke-width="2" stroke-miterlimit="10" d="M1.6,39.8c0,1.1,0.9,2,2,2h36.1c1.1,0,2-0.9,2-2
				V3.6c0-1.1-0.9-2-2-2H3.6c-1.1,0-2,0.9-2,2V39.8z"/>
		</g>
	</g>
</g>
</svg>
