<?xml version="1.0" encoding="utf-8"?>
<!-- Generator: Adobe Illustrator 20.1.0, SVG Export Plug-In . SVG Version: 6.00 Build 0)  -->
<svg version="1.1" id="Laag_1" xmlns="http://www.w3.org/2000/svg" xmlns:xlink="http://www.w3.org/1999/xlink" x="0px" y="0px"
	 viewBox="0 0 611.9 105.8" style="enable-background:new 0 0 611.9 105.8;" xml:space="preserve">
<style type="text/css">
	.st0{fill:#FFFFFF;}
	.st1{fill-rule:evenodd;clip-rule:evenodd;fill:#FFFFFF;}
</style>
<g>
	<g>
		<path class="st0" d="M606.1,49.8c0-3.3-0.5-6.2-1.5-8.8c-1-2.6-2.4-4.8-4.2-6.6c-1.8-1.8-3.9-3.2-6.4-4.1
			c-2.5-0.9-5.2-1.4-8.1-1.4c-3.5,0-6.6,0.6-9.4,1.8c-2.8,1.2-5.1,2.8-7,4.9c-1.9,2.1-3.4,4.5-4.4,7.3c-1,2.8-1.5,5.8-1.5,8.9
			c0,4.1,0.6,7.7,1.8,10.8c1.2,3.1,2.8,5.7,4.8,7.8c2.1,2.1,4.5,3.7,7.2,4.8c2.8,1.1,5.8,1.6,9,1.6c1.6,0,3.3-0.1,5-0.4
			c1.7-0.2,3.4-0.7,5.1-1.2c1.7-0.6,3.3-1.4,4.8-2.4c0.5-0.3,1-0.7,1.4-1l-5.3-6.8c-0.6,0.3-1.2,0.7-2,1.1c-1,0.5-2.1,1-3.4,1.4
			c-1.3,0.4-2.9,0.6-4.7,0.6c-3.7,0-6.6-1.1-8.9-3.4c-2.1-2.1-4.1-5.3-4.6-9.6h30.8c0,0,1.2,0.2,1.2-1.6
			C606.1,51.7,606.1,51.2,606.1,49.8L606.1,49.8z M578.2,39.5c1.9-1.8,4.6-2.6,8.1-2.6c1.7,0,3.3,0.3,4.6,0.8
			c1.3,0.5,2.4,1.3,3.2,2.2c0.9,0.9,1.5,2,1.9,3.2c0.4,1.2,0.6,2.5,0.6,3.9h-22.1C575,43.7,576.2,41.2,578.2,39.5z"/>
	</g>
	<path class="st0" d="M59.5,15.1c-3.2-3.2-7-5.6-11.4-7.4c-4.5-1.8-9.4-2.7-14.8-2.7H5.8v71.7h27.4c5.4,0,10.4-0.9,14.8-2.6
		c4.5-1.8,8.3-4.2,11.4-7.4c3.2-3.2,5.6-7,7.4-11.4c1.7-4.4,2.6-9.2,2.6-14.5c0-5.3-0.9-10.1-2.6-14.5C65.1,22,62.6,18.3,59.5,15.1z
		 M56.1,51.7c-1.2,3.2-2.8,5.9-5,8.1c-2.2,2.2-4.8,3.9-7.9,5.1c-3.1,1.2-6.6,1.8-10.5,1.8H17.2V15.2h15.5c3.9,0,7.4,0.6,10.5,1.8
		c3.1,1.2,5.7,2.9,7.9,5.1c2.2,2.2,3.8,4.9,5,8.1c1.2,3.2,1.8,6.8,1.8,10.8C57.9,44.9,57.3,48.5,56.1,51.7z"/>
	<path class="st0" d="M331.7,35.3c-2-2.1-4.4-3.6-7.2-4.8c-2.8-1.1-6-1.7-9.4-1.7c-3.5,0-6.6,0.6-9.5,1.7c-2.8,1.1-5.3,2.7-7.3,4.8
		c-2,2.1-3.6,4.6-4.7,7.5c-1.1,3-1.7,6.3-1.7,9.9c0,3.7,0.6,7,1.7,10c1.1,3,2.7,5.5,4.7,7.6c2,2.1,4.4,3.7,7.3,4.8
		c2.8,1.1,6,1.7,9.5,1.7c3.5,0,6.6-0.6,9.4-1.7c2.8-1.1,5.2-2.7,7.2-4.8c2-2.1,3.5-4.6,4.6-7.6c1.1-3,1.6-6.3,1.6-10
		c0-3.7-0.5-7-1.6-9.9C335.3,39.8,333.7,37.3,331.7,35.3z M324.2,64.2c-2,2.6-5,3.9-9.1,3.9c-4.2,0-7.3-1.3-9.2-3.9
		c-2-2.6-3-6.4-3-11.4c0-5,1-8.8,3-11.4c2-2.6,5.1-4,9.2-4c4.1,0,7.1,1.3,9.1,3.9c2,2.6,3,6.4,3,11.5
		C327.2,57.8,326.2,61.6,324.2,64.2z"/>
	<path class="st0" d="M173.5,11.6c-2.1,0-3.6,0.4-4.3,1.2c-0.8,0.8-1.1,2.3-1.1,4.4c0,2,0.4,3.5,1.1,4.2c0.7,0.8,2.2,1.2,4.3,1.2
		c2.1,0,3.5-0.4,4.3-1.2c0.8-0.8,1.2-2.3,1.2-4.4c0-2-0.4-3.5-1.1-4.3C177,12,175.6,11.6,173.5,11.6z"/>
	<path class="st0" d="M424.9,35.3c-2-2.1-4.4-3.6-7.2-4.8c-2.8-1.1-6-1.7-9.4-1.7c-3.5,0-6.6,0.6-9.5,1.7c-2.8,1.1-5.3,2.7-7.3,4.8
		c-2,2.1-3.6,4.6-4.7,7.5c-1.1,3-1.7,6.3-1.7,9.9c0,3.7,0.6,7,1.7,10c1.1,3,2.7,5.5,4.7,7.6c2,2.1,4.4,3.7,7.3,4.8
		c2.8,1.1,6,1.7,9.5,1.7c3.5,0,6.6-0.6,9.4-1.7c2.8-1.1,5.2-2.7,7.2-4.8c2-2.1,3.5-4.6,4.6-7.6c1.1-3,1.6-6.3,1.6-10
		c0-3.7-0.5-7-1.6-9.9C428.5,39.8,426.9,37.3,424.9,35.3z M417.4,64.2c-2,2.6-5,3.9-9.1,3.9c-4.2,0-7.3-1.3-9.2-3.9
		c-2-2.6-3-6.4-3-11.4c0-5,1-8.8,3-11.4c2-2.6,5.1-4,9.2-4c4.1,0,7.1,1.3,9.1,3.9c2,2.6,3,6.4,3,11.5
		C420.3,57.8,419.4,61.6,417.4,64.2z"/>
	<path class="st0" d="M129,65.5v-0.3C129,65.4,129,65.5,129,65.5z"/>
	<g>
		<path class="st0" d="M119.6,49.6c0-3.3-0.5-6.2-1.5-8.8c-1-2.6-2.4-4.8-4.2-6.6c-1.8-1.8-3.9-3.2-6.4-4.1
			c-2.5-0.9-5.2-1.4-8.1-1.4c-3.5,0-6.6,0.6-9.4,1.8c-2.8,1.2-5.1,2.8-7,4.9c-1.9,2.1-3.4,4.5-4.4,7.3c-1,2.8-1.5,5.8-1.5,8.9
			c0,4.1,0.6,7.7,1.8,10.8c1.2,3.1,2.8,5.7,4.8,7.8c2.1,2.1,4.5,3.7,7.2,4.8c2.8,1.1,5.8,1.6,9,1.6c1.6,0,3.3-0.1,5-0.4
			c1.7-0.2,3.4-0.7,5.1-1.2c1.7-0.6,3.3-1.4,4.8-2.4c0.5-0.3,1-0.7,1.4-1l-5.3-6.8c-0.6,0.3-1.2,0.7-2,1.1c-1,0.5-2.1,1-3.4,1.4
			c-1.3,0.4-2.9,0.6-4.7,0.6c-3.7,0-6.6-1.1-8.9-3.4c-2.1-2.1-4.1-5.3-4.6-9.6h30.8c0,0,1.2,0.2,1.2-1.6
			C119.6,51.5,119.6,51,119.6,49.6L119.6,49.6z M91.7,39.3c1.9-1.8,4.6-2.6,8.1-2.6c1.7,0,3.3,0.3,4.6,0.8c1.3,0.5,2.4,1.3,3.2,2.2
			c0.9,0.9,1.5,2,1.9,3.2c0.4,1.2,0.6,2.5,0.6,3.9H88C88.5,43.5,89.7,41,91.7,39.3z"/>
	</g>
	<path class="st0" d="M551.8,65c-1.8,2.1-4.3,3.1-7.7,3.1c-3.8,0-6.6-1.3-8.4-3.9c-1.8-2.6-2.7-6.4-2.7-11.4c0-5,0.9-8.8,2.7-11.4
		c1.8-2.6,4.6-4,8.4-4c3.3,0,5.9,1,7.7,3.1l6.6-6.2c-1.6-1.6-3.5-2.9-5.7-3.8c-2.6-1.1-5.4-1.7-8.6-1.7c-3.2,0-6,0.6-8.6,1.7
		c-2.6,1.1-4.8,2.7-6.6,4.8c-1.8,2.1-3.2,4.6-4.2,7.5c-1,3-1.5,6.3-1.5,9.9c0,3.7,0.5,7,1.5,10c1,3,2.4,5.5,4.2,7.6
		c1.8,2.1,4,3.7,6.6,4.8c2.6,1.1,5.4,1.7,8.6,1.7c3.2,0,6-0.6,8.6-1.7c2.1-0.9,4-2.2,5.6-3.8L551.8,65L551.8,65z"/>
	<path class="st0" d="M232.2,28.8c-2.8,0-5.6,0-8.4,0c-0.8,0-1.2,0.4-1.2,1.2c0,0.6,0,1.1,0,1.7c-0.8-0.5-1.7-0.9-2.6-1.2
		c-2.8-1.1-6-1.7-9.5-1.7c-3.5,0-6.6,0.6-9.5,1.7c-2.8,1.1-5.3,2.7-7.3,4.8c-2,2.1-3.6,4.6-4.7,7.5c-1.1,3-1.7,6.3-1.7,9.9
		c0,3.7,0.6,7,1.7,10c1.1,3,2.7,5.5,4.7,7.6c2,2.1,4.4,3.7,7.3,4.8c2.8,1.1,6,1.7,9.5,1.7c3.5,0,6.6-0.6,9.5-1.7
		c0.9-0.4,1.7-0.8,2.6-1.2v0.2c0,1.1,0,2.1,0,3.1v0c0,0.2,0,0.5,0,0.7c-0.6,9.7-9.1,15.2-18.1,11.7c-3.3-1.3-4.9-2.2-8-5.8
		c0,0-6.2,7.8-6.2,7.8c5.5,7,14.5,10.4,23.8,8.8c9.4-1.6,16.1-6.9,18.1-16c0.2-0.8,0.3-4,0.3-4.6V28.8
		C232.4,28.8,232.3,28.8,232.2,28.8z M222.6,54.9c-0.2,4-1.2,7.1-2.9,9.3c-2,2.6-5,3.9-9.1,3.9c-4.2,0-7.3-1.3-9.3-3.9
		c-2-2.6-3-6.4-3-11.4c0-5,1-8.8,3-11.5c2-2.6,5.1-4,9.3-4c4.1,0,7.2,1.3,9.1,3.9c1.7,2.2,2.6,5.3,2.9,9.3V54.9z"/>
	<path class="st0" d="M282.1,39.3c-0.7-2.2-1.7-4.1-3-5.7c-1.3-1.6-3-2.8-5-3.7c-2-0.9-4.3-1.3-6.9-1.3c-1.6,0-3.1,0.2-4.4,0.5
		c-1.4,0.3-2.6,0.8-3.8,1.3c-1.2,0.6-2.3,1.3-3.4,2.1c-0.8,0.6-1.6,1.3-2.3,2c0-0.9,0-2.5,0-3.4c0-0.4,0-0.8,0-1.1
		c0-0.9-0.4-1.3-1.3-1.3c-0.3,0-0.7,0-1,0h-7.6v48h9.9h0V46.5c0.1-0.7,0.8-4.9,4.3-7.3c0.2-0.1,0.4-0.2,0.6-0.4
		c1.6-0.9,3.4-1.3,5.3-1.3c7.2,0.1,8.2,7,8.3,9.8v29.4h11.4V46.6C283.1,43.9,282.8,41.5,282.1,39.3z"/>
	<path class="st0" d="M514.6,29.4c-2.3-0.7-4.9-0.7-7.8-0.2c-1.8,0.3-3.3,0.8-4.8,1.4c-1.2,0.5-2.3,1.2-3.3,1.9c0-0.3,0-0.6,0-0.8
		c0-0.5,0-0.9,0-1.4c0-1-0.4-1.5-1.4-1.5c-3.1,0-5.1,0-8.2,0c-0.1,0-0.2,0-0.3,0v47.7h9.9c0-5.9,0-11.8,0-17.7c0-0.1,0-0.2,0-0.3
		c0-0.1,0-0.2,0-0.3c0-5,0-10,0-15c0,0,0,0,0.1-0.1c1.6-1.4,2.9-2.5,4.7-3.4c5.2-2.6,9.9-1.2,13.7,0.9l0-10.3
		C516.9,30.4,514.8,29.5,514.6,29.4z"/>
	<path class="st1" d="M128.9,69.4c0-1.3,0-2.5,0-3.8c0-0.9,0.3-1.1,1.1-0.7c2.2,1.2,4.4,2.3,6.9,2.8c2.4,0.6,4.8,0.7,7.1,0.1
		c1.7-0.5,3.3-1.3,3.8-3.2c0.7-2.6,0-3.9-1.9-5.3c-1.4-1-2.9-1.6-4.5-2.2c-2.6-1-5.2-2-7.6-3.4c-3.4-2-5.7-4.9-6.3-8.9
		c-0.9-6.4,1.7-11.8,8.1-14.5c2.4-1,4.9-1.5,7.5-1.6c3.6-0.2,7.2,0.3,10.6,1.6c1.1,0.4,2.1,1,3.1,1.6c0.3,0.2,0.4,0.4,0.4,0.7
		c0,2.4,0,4.8,0,7.1c0,0.8-0.3,1-1.1,0.6c-1.3-0.7-2.6-1.4-4-2c-2.6-1.1-5.3-1.7-8.2-1.5c-1.2,0.1-2.3,0.3-3.4,0.9
		c-2.5,1.5-2.9,4.9-0.7,6.8c1.5,1.4,3.4,2.1,5.3,2.8c2.4,0.9,4.8,1.8,7.1,3c3,1.6,5.4,3.8,6.5,7c1.8,5.5,0.5,12.9-6.2,16.6
		c-2.6,1.4-5.3,2.1-8.2,2.4c-4.2,0.5-8.3,0-12.3-1.3c-0.9-0.3-1.7-0.6-2.5-1.1c-0.4-0.2-0.5-0.5-0.5-0.9
		C128.9,71.9,128.9,70.6,128.9,69.4z"/>
	<path class="st0" d="M178.5,31c0-0.1,0-0.1,0-0.2c0-0.1,0-0.1,0-0.2c0-1-0.8-1.7-1.7-1.7h-6.5c-1,0-1.7,0.8-1.7,1.7
		c0,0.1,0,0.1,0,0.2c0,0.1,0,0.1,0,0.2v43.7c0,0,0,0.1,0,0.1c0,0,0,0.1,0,0.1c0,1,0.8,1.7,1.7,1.7h6.5c1,0,1.7-0.8,1.7-1.7
		c0,0,0-0.1,0-0.1c0,0,0-0.1,0-0.1V31z"/>
	<path class="st1" d="M347.1,69.3c0-1.3,0-2.5,0-3.8c0-0.9,0.3-1.1,1.1-0.7c2.2,1.2,4.4,2.3,6.9,2.8c2.4,0.6,4.8,0.7,7.1,0.1
		c1.7-0.5,3.3-1.3,3.8-3.2c0.7-2.6,0-3.9-1.9-5.4c-1.4-1-2.9-1.6-4.5-2.2c-2.6-1-5.2-2-7.6-3.4c-3.4-2-5.7-4.9-6.3-8.9
		c-0.9-6.4,1.7-11.9,8.1-14.5c2.4-1,4.9-1.5,7.5-1.6c3.6-0.2,7.2,0.3,10.6,1.6c1.1,0.4,2.1,1,3.1,1.6c0.3,0.2,0.4,0.4,0.4,0.7
		c0,2.4,0,4.8,0,7.2c0,0.8-0.3,1-1.1,0.6c-1.3-0.7-2.6-1.4-4-2c-2.6-1.1-5.3-1.7-8.2-1.5c-1.2,0.1-2.3,0.3-3.4,0.9
		c-2.5,1.5-2.9,4.9-0.7,6.8c1.5,1.4,3.4,2.1,5.3,2.8c2.4,0.9,4.8,1.8,7.1,3c3,1.6,5.4,3.8,6.5,7.1c1.8,5.5,0.5,13-6.3,16.6
		c-2.6,1.4-5.4,2.1-8.3,2.4c-4.2,0.5-8.3,0-12.3-1.3c-0.9-0.3-1.7-0.6-2.5-1.1c-0.4-0.2-0.5-0.5-0.5-0.9
		C347.2,71.9,347.2,70.6,347.1,69.3z"/>
	<path class="st0" d="M479,30.1c0-0.8-0.5-1.5-1.2-1.5h-7.2c-0.6,0-1.2,0.7-1.2,1.5c0,0.1,0,0.1,0,0.2c0,0,0,0.1,0,0.1v28.1
		c0,1.6-0.2,3.1-0.7,4.4c-0.4,1.3-1.1,2.4-1.9,3.2c-0.8,0.9-1.8,1.5-3,2c-1.2,0.4-2.5,0.7-4,0.7c-1.5,0-2.8-0.2-4-0.7
		c-1.2-0.4-2.2-1.1-3.1-2c-0.9-0.9-1.5-2-2-3.4c-0.5-1.4-0.7-3-0.7-4.8V30.1c0-0.1,0-0.1,0-0.2c0,0,0,0,0,0c0-0.7-0.5-1.3-1.2-1.3
		h-7.2c-0.6,0-1.2,0.6-1.2,1.3c0,0,0,0.1,0,0.1c0,0,0,0.1,0,0.1v0.2v28.3v0.1c0,3,0.4,5.6,1.3,7.8c0.9,2.2,2.1,4.1,3.7,5.6
		c1.6,1.5,3.6,2.6,5.9,3.3c2.3,0.7,5,1.1,7.9,1.1c0,0,0,0,0,0c0,0,0,0,0,0c3.1,0,5.9-0.4,8.4-1.2c2.4-0.8,4.5-2,6.1-3.6
		c1.6-1.6,2.9-3.5,3.7-5.8c0.8-2.3,1.3-4.9,1.3-7.7V30.1C479,30.1,479,30.1,479,30.1C479,30.1,479,30.1,479,30.1z"/>
</g>
</svg>
