<?xml version="1.0" encoding="utf-8"?>
<!-- Generator: Adobe Illustrator 18.0.0, SVG Export Plug-In . SVG Version: 6.00 Build 0)  -->
<!DOCTYPE svg PUBLIC "-//W3C//DTD SVG 1.1//EN" "http://www.w3.org/Graphics/SVG/1.1/DTD/svg11.dtd">
<svg version="1.1" id="Laag_1" xmlns="http://www.w3.org/2000/svg" xmlns:xlink="http://www.w3.org/1999/xlink" x="0px" y="0px"
	 viewBox="0 0 30 30" enable-background="new 0 0 30 30" xml:space="preserve">
<path fill-rule="evenodd" clip-rule="evenodd" fill="none" stroke="#FFFFFF" stroke-width="2" stroke-linecap="round" stroke-linejoin="round" stroke-miterlimit="10" d="
	M23.6,28.5V17.7c0-2.5-1.2-4.1-3.4-4.1c-1.6,0-3,1.1-3.4,2.2c-0.2,0.4-0.2,0.9-0.2,1.5v11.2H11V15.3c0-2.4,0-4.5-0.1-6.2l5-0.1
	l0.3,2.8h0.1c0.8-1.2,2.7-3.1,5.9-3.1c3.9,0,6.7,2.6,6.7,8.2v11.4H23.6z M4.3,6.9c-1.9,0-3.1-1.3-3.1-3c0-1.7,1.2-3,3.2-3
	c1.9,0,3.1,1.3,3.1,3C7.4,5.6,6.2,6.9,4.3,6.9z M6.9,28.4H1.3V9.1h5.5V28.4z"/>
</svg>
