<?xml version="1.0" encoding="utf-8"?>
<!-- Generator: Adobe Illustrator 18.0.0, SVG Export Plug-In . SVG Version: 6.00 Build 0)  -->
<!DOCTYPE svg PUBLIC "-//W3C//DTD SVG 1.1//EN" "http://www.w3.org/Graphics/SVG/1.1/DTD/svg11.dtd">
<svg version="1.1" id="Laag_1" xmlns="http://www.w3.org/2000/svg" xmlns:xlink="http://www.w3.org/1999/xlink" x="0px" y="0px"
	 viewBox="0 0 696 898" enable-background="new 0 0 696 898" xml:space="preserve">
<path fill="#FFFFFF" d="M595.4,178.8c22.6-6.5,45.8-8.7,69.5-8.4c5.4,0.1,11.4-1.5,16.2-4.2c9.8-5.6,10.1-18.8,0.9-25.4
	c-4.1-2.9-8.7-5.3-13.2-7.4c-67.9-31.2-135.9-62.4-203.8-93.6c-24.2-11-48.3-22.3-72.7-32.8c-12.1-5.2-19-0.1-19.3,12.8
	c0.6,3.5,0.9,7.1,1.6,10.6c18.4,85.9,36.9,171.8,55.4,257.6c3,14.2,6.2,28.5,10.1,42.5c3.4,12.3,14.3,15.7,24.9,8.4
	c7-4.8,10.6-11.5,12.6-19.7c3.3-13.5,6.6-27.1,11.5-40.1c6.9-18.3,15.8-34.6,27-48.7c46.9,72.7,77.7,169.7,77.7,264.3
	c0,186.9-111,293.6-247.9,293.6c-136.9,0-248-106.7-248-293.6c0-178,109.8-364.5,229.9-381.9v0c0,0,7.7-0.8,6.3-7.5
	c-6.5-30.1-13-60.3-19.5-90.4c-1.4-6.7-6-7.6-9.3-7.3C143.9,42.9,0,281.3,0,509.1c0,246.7,154.9,387.5,345.9,387.5
	c191,0,345.9-140.8,345.9-387.5C691.8,392.1,654.1,272.4,595.4,178.8z"/>
</svg>
