<?xml version="1.0" encoding="utf-8"?>
<!-- Generator: Adobe Illustrator 18.0.0, SVG Export Plug-In . SVG Version: 6.00 Build 0)  -->
<!DOCTYPE svg PUBLIC "-//W3C//DTD SVG 1.1//EN" "http://www.w3.org/Graphics/SVG/1.1/DTD/svg11.dtd">
<svg version="1.1" id="Laag_1" xmlns="http://www.w3.org/2000/svg" xmlns:xlink="http://www.w3.org/1999/xlink" x="0px" y="0px"
	 viewBox="0 0 30 30" enable-background="new 0 0 30 30" xml:space="preserve">
<path id="globe-3-icon" fill="#FFFFFF" d="M29.6,15.4c0-8.2-6.7-14.7-14.7-14.7C6.9,0.7,0.2,7,0.2,15.4C0.2,23.7,7,30,14.9,30
	C22.8,30,29.6,23.7,29.6,15.4z M7.9,10c-0.3,1.3-0.5,2.8-0.5,4.3H3.2c0.2-2,0.9-3.8,1.9-5.4C6,9.3,7,9.7,7.9,10z M7.4,16.5
	C7.5,18,7.7,19.4,8,20.8c-1,0.3-1.9,0.6-2.8,1.1c-1.1-1.6-1.7-3.4-1.9-5.4H7.4z M8.5,22.9C8.9,24,9.3,25,9.9,26
	c-1.2-0.6-2.4-1.4-3.3-2.3C7.2,23.4,7.9,23.2,8.5,22.9z M16,19.9v-3.4h4.1c-0.1,1.3-0.2,2.6-0.5,3.8C18.5,20,17.3,19.9,16,19.9z
	 M19,22.4c-0.6,1.6-1.6,3.6-3,4.4v-4.8C17,22.2,18.1,22.3,19,22.4z M16,14.2v-3.3c1.3-0.1,2.5-0.2,3.7-0.4c0.2,1.2,0.4,2.4,0.4,3.7
	L16,14.2L16,14.2z M16,8.6V3.7c1.5,0.8,2.5,3,3.1,4.6C18.1,8.5,17.1,8.6,16,8.6z M13.7,3.7v4.9c-1.1,0-2.1-0.2-3.1-0.3
	C11.2,6.7,12.3,4.6,13.7,3.7z M13.7,10.9v3.3H9.7c0.1-1.3,0.2-2.6,0.4-3.7C11.3,10.7,12.5,10.8,13.7,10.9z M10.1,20.3
	c-0.3-1.2-0.4-2.5-0.5-3.8h4.1v3.4C12.5,19.9,11.3,20,10.1,20.3z M13.7,22.1v4.7c-1.4-0.8-2.4-2.8-3-4.4
	C11.7,22.3,12.7,22.2,13.7,22.1z M21.2,22.9c0.7,0.2,1.3,0.4,1.9,0.7c-0.9,0.9-2.1,1.7-3.3,2.3C20.4,25,20.9,24,21.2,22.9z
	 M21.8,20.8c0.3-1.4,0.5-2.8,0.5-4.3h4.2c-0.2,2-0.9,3.8-1.9,5.4C23.7,21.4,22.8,21.1,21.8,20.8z M24.7,8.9c1,1.6,1.7,3.4,1.9,5.4
	h-4.2c-0.1-1.5-0.2-2.9-0.5-4.3C22.8,9.7,23.8,9.3,24.7,8.9z M23.2,7.1c-0.6,0.3-1.2,0.5-1.9,0.7c-0.3-1-0.8-2.1-1.3-3
	C21.2,5.4,22.3,6.2,23.2,7.1z M9.8,4.8c-0.6,1-1,2-1.3,3C7.8,7.6,7.2,7.3,6.6,7.1C7.5,6.1,8.6,5.4,9.8,4.8z"/>
</svg>
