<?xml version="1.0" encoding="utf-8"?>
<!-- Generator: Adobe Illustrator 16.0.0, SVG Export Plug-In . SVG Version: 6.00 Build 0)  -->
<!DOCTYPE svg PUBLIC "-//W3C//DTD SVG 1.1//EN" "http://www.w3.org/Graphics/SVG/1.1/DTD/svg11.dtd">
<svg version="1.1" id="Layer_1" xmlns="http://www.w3.org/2000/svg" xmlns:xlink="http://www.w3.org/1999/xlink" x="0px" y="0px"
	 width="359.3px" height="46.4px" viewBox="0 0 359.3 46.4" enable-background="new 0 0 359.3 46.4" xml:space="preserve">
<g>
	<g>
		<g>
			<path fill="#FFFFFF" d="M130.7,21.7c0-1.6-0.2-3-0.7-4.3c-0.5-1.3-1.2-2.3-2-3.2c-0.9-0.9-1.9-1.5-3.1-2
				c-1.2-0.5-2.5-0.7-3.9-0.7c-1.7,0-3.2,0.3-4.5,0.9c-1.3,0.6-2.5,1.4-3.4,2.4c-0.9,1-1.6,2.2-2.1,3.5c-0.5,1.4-0.7,2.8-0.7,4.3
				c0,2,0.3,3.7,0.9,5.2c0.6,1.5,1.4,2.8,2.3,3.8c1,1,2.2,1.8,3.5,2.3c1.3,0.5,2.8,0.8,4.4,0.8c0.8,0,1.6-0.1,2.4-0.2
				c0.8-0.1,1.7-0.3,2.5-0.6c0.8-0.3,1.6-0.7,2.3-1.1c0.2-0.2,0.5-0.3,0.7-0.5l-2.6-3.3c-0.3,0.2-0.6,0.3-1,0.5
				c-0.5,0.3-1,0.5-1.7,0.7c-0.6,0.2-1.4,0.3-2.3,0.3c-1.8,0-3.2-0.5-4.3-1.6c-1-1-2-2.6-2.2-4.6h14.9c0,0,0.6,0.1,0.6-0.8
				C130.7,22.6,130.7,22.4,130.7,21.7L130.7,21.7z M117.2,16.7c0.9-0.8,2.2-1.3,3.9-1.3c0.8,0,1.6,0.1,2.2,0.4
				c0.6,0.3,1.2,0.6,1.6,1.1c0.4,0.4,0.7,1,0.9,1.6c0.2,0.6,0.3,1.2,0.3,1.9h-10.7C115.7,18.8,116.3,17.6,117.2,16.7z"/>
		</g>
		<g>
			<path fill="#FFFFFF" d="M224,21.7c0-1.6-0.2-3-0.7-4.3c-0.5-1.3-1.2-2.3-2-3.2c-0.9-0.9-1.9-1.5-3.1-2c-1.2-0.5-2.5-0.7-3.9-0.7
				c-1.7,0-3.2,0.3-4.5,0.9c-1.3,0.6-2.5,1.4-3.4,2.4c-0.9,1-1.6,2.2-2.1,3.5c-0.5,1.4-0.7,2.8-0.7,4.3c0,2,0.3,3.7,0.9,5.2
				c0.6,1.5,1.4,2.8,2.3,3.8c1,1,2.2,1.8,3.5,2.3c1.3,0.5,2.8,0.8,4.4,0.8c0.8,0,1.6-0.1,2.4-0.2c0.8-0.1,1.7-0.3,2.5-0.6
				c0.8-0.3,1.6-0.7,2.3-1.1c0.2-0.2,0.5-0.3,0.7-0.5l-2.6-3.3c-0.3,0.2-0.6,0.3-1,0.5c-0.5,0.3-1,0.5-1.7,0.7
				c-0.6,0.2-1.4,0.3-2.3,0.3c-1.8,0-3.2-0.5-4.3-1.6c-1-1-2-2.6-2.2-4.6h14.9c0,0,0.6,0.1,0.6-0.8S224,22.4,224,21.7L224,21.7z
				 M210.5,16.7c0.9-0.8,2.2-1.3,3.9-1.3c0.8,0,1.6,0.1,2.2,0.4c0.6,0.3,1.2,0.6,1.6,1.1c0.4,0.4,0.7,1,0.9,1.6
				c0.2,0.6,0.3,1.2,0.3,1.9h-10.7C209,18.8,209.6,17.6,210.5,16.7z"/>
		</g>
		<path fill="#FFFFFF" d="M298.6,14.7c-1-1-2.1-1.8-3.5-2.3c-1.4-0.5-2.9-0.8-4.6-0.8c-1.7,0-3.2,0.3-4.6,0.8
			c-1.4,0.5-2.5,1.3-3.5,2.3c-1,1-1.7,2.2-2.3,3.6c-0.5,1.4-0.8,3-0.8,4.8c0,1.8,0.3,3.4,0.8,4.8c0.5,1.4,1.3,2.7,2.3,3.7
			c1,1,2.1,1.8,3.5,2.3c1.4,0.5,2.9,0.8,4.6,0.8c1.7,0,3.2-0.3,4.6-0.8c1.4-0.5,2.5-1.3,3.5-2.3c1-1,1.7-2.2,2.2-3.7
			c0.5-1.4,0.8-3,0.8-4.8c0-1.8-0.3-3.4-0.8-4.8C300.3,16.9,299.6,15.7,298.6,14.7z M295,28.7c-1,1.3-2.4,1.9-4.4,1.9
			c-2,0-3.5-0.6-4.5-1.9c-1-1.3-1.4-3.1-1.4-5.5c0-2.4,0.5-4.3,1.4-5.5c1-1.3,2.5-1.9,4.5-1.9c2,0,3.5,0.6,4.4,1.9
			c1,1.3,1.4,3.1,1.4,5.5C296.4,25.6,295.9,27.4,295,28.7z"/>
		<path fill="#FFFFFF" d="M198.3,29c-0.9,1-2.1,1.5-3.7,1.5c-1.8,0-3.2-0.6-4.1-1.9c-0.9-1.3-1.3-3.1-1.3-5.5s0.4-4.3,1.3-5.5
			c0.9-1.3,2.2-1.9,4.1-1.9c1.6,0,2.8,0.5,3.7,1.5l3.2-3c-0.8-0.8-1.7-1.4-2.7-1.9c-1.2-0.5-2.6-0.8-4.2-0.8c-1.5,0-2.9,0.3-4.2,0.8
			c-1.2,0.5-2.3,1.3-3.2,2.3c-0.9,1-1.6,2.2-2.1,3.6c-0.5,1.4-0.7,3-0.7,4.8c0,1.8,0.2,3.4,0.7,4.8c0.5,1.4,1.2,2.7,2.1,3.7
			c0.9,1,1.9,1.8,3.2,2.3c1.2,0.5,2.6,0.8,4.2,0.8c1.5,0,2.9-0.3,4.2-0.8c1-0.5,1.9-1.1,2.7-1.9L198.3,29L198.3,29z"/>
		<path fill="#FFFFFF" d="M155.8,11.6c-1.4,0-2.7,0-4.1,0c-0.4,0-0.6,0.2-0.6,0.6c0,0.3,0,0.6,0,0.8c-0.4-0.2-0.8-0.4-1.3-0.6
			c-1.4-0.5-2.9-0.8-4.6-0.8c-1.7,0-3.2,0.3-4.6,0.8c-1.4,0.5-2.6,1.3-3.5,2.3c-1,1-1.7,2.2-2.3,3.6c-0.5,1.4-0.8,3-0.8,4.8
			c0,1.8,0.3,3.4,0.8,4.8c0.5,1.4,1.3,2.7,2.3,3.7c1,1,2.1,1.8,3.5,2.3c1.4,0.5,2.9,0.8,4.6,0.8c1.7,0,3.2-0.3,4.6-0.8
			c0.4-0.2,0.8-0.4,1.2-0.6v0.1c0,0.5,0,1,0,1.5v0c0,0.1,0,0.2,0,0.3c-0.3,4.7-4.4,7.4-8.8,5.7c-1.6-0.6-2.4-1.1-3.9-2.8
			c0,0-3,3.8-3,3.8c2.7,3.4,7,5,11.5,4.3c4.5-0.8,7.8-3.3,8.8-7.7c0.1-0.4,0.2-1.9,0.2-2.2V11.6C155.9,11.6,155.9,11.6,155.8,11.6z
			 M151.1,24.2c-0.1,1.9-0.6,3.4-1.4,4.5c-1,1.3-2.4,1.9-4.4,1.9c-2,0-3.5-0.6-4.5-1.9c-1-1.3-1.4-3.1-1.4-5.5
			c0-2.4,0.5-4.3,1.4-5.5c1-1.3,2.5-1.9,4.5-1.9c2,0,3.5,0.6,4.4,1.9c0.8,1.1,1.3,2.6,1.4,4.5V24.2z"/>
		<path fill="#FFFFFF" d="M181,11.6c-1.4,0-2.7,0-4.1,0c-0.4,0-0.6,0.2-0.6,0.6c0,0.3,0,0.6,0,0.8c-0.4-0.2-0.8-0.4-1.3-0.6
			c-1.4-0.5-2.9-0.8-4.6-0.8c-1.7,0-3.2,0.3-4.6,0.8c-1.4,0.5-2.5,1.3-3.5,2.3c-1,1-1.7,2.2-2.3,3.6c-0.5,1.4-0.8,3-0.8,4.8
			c0,1.8,0.3,3.4,0.8,4.8c0.5,1.4,1.3,2.7,2.3,3.7c1,1,2.1,1.8,3.5,2.3s2.9,0.8,4.6,0.8c1.7,0,3.2-0.3,4.6-0.8
			c0.4-0.2,0.8-0.4,1.2-0.6v0.1c0,0.5,0,1,0,1.5v0c0,0.1,0,0.2,0,0.3c-0.3,4.7-4.4,7.4-8.8,5.7c-1.6-0.6-2.4-1.1-3.9-2.8
			c0,0-3,3.8-3,3.8c2.7,3.4,7,5,11.5,4.3c4.5-0.8,7.8-3.3,8.8-7.7c0.1-0.4,0.2-1.9,0.2-2.2V11.6C181.1,11.6,181.1,11.6,181,11.6z
			 M176.3,24.2c-0.1,1.9-0.6,3.4-1.4,4.5c-1,1.3-2.4,1.9-4.4,1.9c-2,0-3.5-0.6-4.5-1.9c-1-1.3-1.4-3.1-1.4-5.5
			c0-2.4,0.5-4.3,1.4-5.5c1-1.3,2.5-1.9,4.5-1.9c2,0,3.5,0.6,4.4,1.9c0.8,1.1,1.3,2.6,1.4,4.5V24.2z"/>
		<path fill="#FFFFFF" d="M324.6,16.7c-0.3-1.1-0.8-2-1.5-2.7c-0.6-0.8-1.5-1.4-2.4-1.8c-1-0.4-2.1-0.6-3.3-0.6
			c-0.8,0-1.5,0.1-2.1,0.2c-0.7,0.1-1.3,0.4-1.8,0.6c-0.6,0.3-1.1,0.6-1.6,1c-0.4,0.3-0.8,0.6-1.1,1c0-0.4,0-1.2,0-1.6
			c0-0.2,0-0.4,0-0.5c0-0.4-0.2-0.6-0.6-0.6c-0.2,0-0.3,0-0.5,0h-3.7v23.2h4.8h0V20.2c0-0.3,0.4-2.4,2.1-3.5
			c0.1-0.1,0.2-0.1,0.3-0.2c0.8-0.4,1.6-0.6,2.6-0.6c3.5,0,4,3.4,4,4.7v14.2h5.5V20.2C325.1,18.9,325,17.8,324.6,16.7z"/>
		<g>
			<path fill="#FFFFFF" d="M272.4,3.3c-1,0-1.7,0.2-2.1,0.6c-0.4,0.4-0.6,1.1-0.6,2.1c0,1,0.2,1.7,0.5,2c0.4,0.4,1,0.6,2.1,0.6
				c1,0,1.7-0.2,2.1-0.6c0.4-0.4,0.6-1.1,0.6-2.1c0-1-0.2-1.7-0.5-2.1S273.4,3.3,272.4,3.3z"/>
			<path fill="#FFFFFF" d="M274.8,12.6C274.8,12.6,274.8,12.6,274.8,12.6c0-0.1,0-0.1,0-0.2c0-0.5-0.4-0.8-0.8-0.8h-3.1
				c-0.5,0-0.8,0.4-0.8,0.8c0,0,0,0.1,0,0.1c0,0,0,0,0,0.1v21.1c0,0,0,0,0,0c0,0,0,0,0,0.1c0,0.5,0.4,0.8,0.8,0.8h3.1
				c0.5,0,0.8-0.4,0.8-0.8c0,0,0,0,0-0.1c0,0,0,0,0,0V12.6z"/>
		</g>
		<g>
			<path fill="#FFFFFF" d="M248.1,18.3c-0.5-1.4-1.3-2.6-2.2-3.6c-1-1-2.1-1.7-3.5-2.3c-1.4-0.5-2.9-0.8-4.5-0.8
				c-1.7,0-3.2,0.3-4.5,0.8c-0.5,0.2-0.9,0.4-1.3,0.6c0-0.1,0-0.2,0-0.3c0-0.8-0.2-1.1-0.6-1.1c-1.3,0-2.7,0-4,0
				c-0.4,0-0.6,0.4-0.6,1.1c0,0.2,0,0.5,0,0.7h0V23c0,0,0,0,0,0c0,0,0,0,0,0v23.4h5.2c0-4.3,0-8.6,0-12.9c0-0.1,0-0.1,0-0.2
				s0-0.1,0-0.2c0,0,0,0,0,0c0.4,0.2,0.8,0.4,1.3,0.6c1.4,0.5,2.9,0.8,4.5,0.8c1.7,0,3.2-0.3,4.5-0.8c1.4-0.5,2.5-1.3,3.5-2.3
				c1-1,1.7-2.2,2.2-3.6c0.5-1.4,0.8-3,0.8-4.8C248.9,21.3,248.7,19.7,248.1,18.3z M242.3,28.5c-0.9,1.2-2.4,1.9-4.4,1.9
				c-2,0-3.5-0.6-4.4-1.9c-0.8-1.1-1.3-2.6-1.4-4.5c0-0.7,0-1.3,0-2c0.1-1.9,0.6-3.4,1.4-4.5c1-1.3,2.4-1.9,4.4-1.9
				c2,0,3.4,0.6,4.4,1.9c0.9,1.3,1.4,3.1,1.4,5.5S243.2,27.3,242.3,28.5z"/>
		</g>
		<path fill="#FFFFFF" d="M260.5,6.1v5.5h4v3.8h-4V28c0,0.9,0.2,1.5,0.5,1.9c0.3,0.4,1,0.6,1.8,0.6c0.6,0,1.2-0.1,1.8-0.2v3.9
			c-1.2,0.3-2.3,0.5-3.4,0.5c-3.9,0-5.9-2.2-5.9-6.5V15.4h-3.7v-3.8h3.7V6.1H260.5z"/>
		<path fill="#FFFFFF" d="M343.8,34.6c-0.2-0.4-0.4-1.2-0.6-2.2c-1.7,1.7-3.7,2.6-6.1,2.6c-2.3,0-4.2-0.7-5.7-2
			c-1.5-1.3-2.2-3-2.2-4.9c0-2.5,0.9-4.4,2.8-5.7c1.8-1.3,4.5-2,7.9-2h3.2v-1.5c0-1.2-0.3-2.2-1-2.9s-1.7-1.1-3.1-1.1
			c-1.2,0-2.2,0.3-2.9,0.9c-0.8,0.6-1.1,1.3-1.1,2.3h-5.2c0-1.3,0.4-2.5,1.3-3.6c0.8-1.1,2-2,3.4-2.6c1.4-0.6,3.1-0.9,4.9-0.9
			c2.7,0,4.9,0.7,6.5,2c1.6,1.4,2.4,3.3,2.5,5.8v10.5c0,2.1,0.3,3.7,0.9,5v0.4H343.8z M338.1,30.9c1,0,2-0.3,2.9-0.8s1.6-1.2,2-2
			v-4.4h-2.8c-1.9,0-3.4,0.3-4.3,1c-1,0.7-1.5,1.6-1.5,2.8c0,1,0.3,1.8,1,2.4C336.1,30.6,336.9,30.9,338.1,30.9z"/>
		<path fill-rule="evenodd" clip-rule="evenodd" fill="#FFFFFF" d="M353.8,17.4c0-5.5,0-10.9,0-16.4c0-1,0-1,0.9-1c1,0,2.1,0,3.1,0
			c0.6,0,0.8,0.2,0.8,0.9c0,2.6,0,5.2,0,7.9c0,8.3,0,16.6,0,24.9c0,1,0,1-1,1c-1,0-2,0-3,0c-0.9,0-0.9,0-0.9-1c0-5.1,0-10.2,0-15.2
			C353.8,18.2,353.8,17.8,353.8,17.4z"/>
	</g>
	<path fill-rule="evenodd" clip-rule="evenodd" fill="#FFFFFF" d="M10.3,17.4c0-5.5,0-10.9,0-16.4c0-1,0-1,1-1c1.1,0,2.3,0,3.4,0
		c0.6,0,0.9,0.2,0.9,0.9c0,2.6,0,5.2,0,7.9c0,8.3,0,16.6,0,24.9c0,1,0,1-1,1c-1.1,0-2.2,0-3.2,0c-1,0-1,0-1-1c0-5.1,0-10.2,0-15.2
		C10.3,18.1,10.3,17.8,10.3,17.4z"/>
	<path fill-rule="evenodd" clip-rule="evenodd" fill="#FFFFFF" d="M12.9,0c4,0,8.1,0,12.1,0c0.7,0,0.8,0,0.8,0.9c0,1,0,2.1,0,3.1
		c0,0.6-0.1,0.8-0.6,0.8c-1.9,0-3.9,0-5.8,0c-6.1,0-12.3,0-18.4,0c-0.8,0-0.8,0-0.8-1c0-1,0-2,0-3C0.1,0,0.1,0,0.8,0
		c3.7,0,7.5,0,11.2,0C12.3,0,12.6,0,12.9,0z"/>
	<path fill="#FFFFFF" d="M33.6,11.8c-1.1-0.3-2.4-0.4-3.8-0.1c-0.8,0.2-1.6,0.4-2.3,0.7c-0.6,0.3-1.1,0.6-1.6,0.9c0-0.1,0-0.3,0-0.4
		c0-0.2,0-0.4,0-0.7c0-0.5-0.2-0.7-0.7-0.7c-1.5,0-2.5,0-4,0c0,0-0.1,0-0.1,0v23.2h4.8c0-2.9,0-5.7,0-8.6c0,0,0-0.1,0-0.1
		c0,0,0-0.1,0-0.1c0-2.4,0-4.9,0-7.3c0,0,0,0,0,0c0.8-0.7,1.4-1.2,2.3-1.7c2.5-1.3,4.8-0.6,6.6,0.4l0-5
		C34.7,12.2,33.7,11.8,33.6,11.8z"/>
	<path fill="#FFFFFF" d="M57.9,12.2c0-0.4-0.3-0.7-0.6-0.7h-3.5c-0.3,0-0.6,0.3-0.6,0.7c0,0,0,0.1,0,0.1c0,0,0,0,0,0V26
		c0,0.8-0.1,1.5-0.3,2.1c-0.2,0.6-0.5,1.2-0.9,1.6c-0.4,0.4-0.9,0.7-1.4,1C50,30.9,49.4,31,48.7,31c-0.7,0-1.4-0.1-1.9-0.3
		c-0.6-0.2-1.1-0.5-1.5-1c-0.4-0.4-0.7-1-1-1.6c-0.2-0.7-0.3-1.4-0.3-2.4V12.2c0,0,0-0.1,0-0.1c0,0,0,0,0,0c0-0.3-0.3-0.6-0.6-0.6
		h-3.5c-0.3,0-0.6,0.3-0.6,0.6c0,0,0,0,0,0.1c0,0,0,0,0,0v0.1v13.8v0c0,1.4,0.2,2.7,0.6,3.8c0.4,1.1,1,2,1.8,2.7
		c0.8,0.7,1.7,1.3,2.9,1.6c1.1,0.4,2.4,0.5,3.8,0.5c0,0,0,0,0,0c0,0,0,0,0,0c1.5,0,2.9-0.2,4.1-0.6c1.2-0.4,2.2-1,3-1.7
		c0.8-0.8,1.4-1.7,1.8-2.8c0.4-1.1,0.6-2.4,0.6-3.8V12.2C57.9,12.2,57.9,12.2,57.9,12.2C57.9,12.2,57.9,12.2,57.9,12.2z"/>
	<path fill-rule="evenodd" clip-rule="evenodd" fill="#FFFFFF" d="M62.7,17.4c0-5.5,0-10.9,0-16.4c0-1,0-1,0.9-1c1,0,2.1,0,3.1,0
		c0.6,0,0.8,0.2,0.8,0.9c0,2.6,0,5.2,0,7.9c0,8.3,0,16.6,0,24.9c0,1,0,1-0.9,1c-1,0-2,0-3,0c-0.9,0-0.9,0-0.9-1c0-5.1,0-10.2,0-15.2
		C62.7,18.1,62.7,17.8,62.7,17.4z"/>
	<path fill="#FFFFFF" d="M92.9,11.5c-0.6,1.3-1.2,2.6-1.8,3.9c-2.2,4.8-4.5,9.6-6.7,14.4c-2.2-4.8-4.5-9.6-6.7-14.4
		c-0.6-1.3-1.2-2.6-1.8-3.9H71c1.9,4.1,3.8,8.2,5.8,12.4c0.1,0.3,0.3,0.6,0.4,0.8c1.6,3.3,3.1,6.7,4.7,10l-1.2,2.8
		c-0.7,1.8-1.5,3-2.6,3.7c-1,0.7-2.5,1-4.4,1l-1.5-0.1V46l2.1,0.3l1,0.1c4.4,0,7.6-2.4,9.6-7.1l2.1-4.7c1.6-3.3,3.1-6.7,4.7-10
		c0.1-0.3,0.3-0.6,0.4-0.8c1.9-4.1,3.8-8.2,5.8-12.4H92.9z"/>
</g>
</svg>
