<?xml version="1.0" encoding="utf-8"?>
<!-- Generator: Adobe Illustrator 18.0.0, SVG Export Plug-In . SVG Version: 6.00 Build 0)  -->
<!DOCTYPE svg PUBLIC "-//W3C//DTD SVG 1.1//EN" "http://www.w3.org/Graphics/SVG/1.1/DTD/svg11.dtd">
<svg version="1.1" id="Laag_1" xmlns="http://www.w3.org/2000/svg" xmlns:xlink="http://www.w3.org/1999/xlink" x="0px" y="0px"
	 viewBox="0 0 30 30" enable-background="new 0 0 30 30" xml:space="preserve">
<path fill-rule="evenodd" clip-rule="evenodd" fill="none" stroke="#FFFFFF" stroke-width="2" stroke-linecap="round" stroke-linejoin="round" stroke-miterlimit="10" d="
	M25.7,7.4c0,0,2.2-0.2,3.1-0.8c0,0-0.2,0.8-2.9,3.2c0,0,0.9,13.2-12.9,16.4c0,0-7,1.5-12.1-2.3c0,0,5.3,0.9,8.3-2.4
	c0,0-3.9,0-5.1-3.9c0,0,1.5,0.3,2.3-0.1c0,0-4.4-0.9-4.3-5.7c0,0,1.2,0.9,2.2,0.7c0,0-3.9-3.3-1.5-7.5c0,0,5.3,6.2,11.8,5.9
	c-0.1-0.4-0.2-0.9-0.2-1.4c0-3.1,2.5-5.6,5.6-5.6c1.6,0,3,0.6,4,1.7c0.7,0,2.3-0.1,3.8-1.2C28,4.3,28.1,5.5,25.7,7.4z"/>
</svg>
